<svg width="12" height="14" viewBox="0 0 12 14" fill="none" xmlns="http://www.w3.org/2000/svg">
<rect y="10.5" width="1.5" height="1.5" fill="#74C9FE"/>
<rect y="12" width="1.5" height="1.5" fill="#74C9FE"/>
<rect x="3" y="12" width="1.5" height="1.5" fill="#74C9FE"/>
<rect x="4.5" y="12" width="1.5" height="1.5" fill="#74C9FE"/>
<rect x="6" y="12" width="1.5" height="1.5" fill="#74C9FE"/>
<rect x="7.5" y="12" width="1.5" height="1.5" fill="#74C9FE"/>
<rect y="9" width="1.5" height="1.5" fill="#74C9FE"/>
<rect y="7.5" width="1.5" height="1.5" fill="#74C9FE"/>
<rect y="6" width="1.5" height="1.5" fill="#74C9FE"/>
<rect y="4.5" width="1.5" height="1.5" fill="#74C9FE"/>
<rect y="3" width="1.5" height="1.5" fill="#74C9FE"/>
<rect x="3" y="3" width="1.5" height="1.5" fill="#74C9FE"/>
<rect x="1.5" y="12" width="1.5" height="1.5" fill="#74C9FE"/>
<rect x="1.5" y="3" width="1.5" height="1.5" fill="#74C9FE"/>
<rect x="4.5" y="3" width="1.5" height="1.5" fill="#74C9FE"/>
<rect x="6" y="3" width="1.5" height="1.5" fill="#74C9FE"/>
<rect x="7.5" y="3" width="1.5" height="1.5" fill="#74C9FE"/>
<rect x="7.5" y="4.5" width="1.5" height="1.5" fill="#74C9FE"/>
<rect x="7.5" y="6" width="1.5" height="1.5" fill="#74C9FE"/>
<rect x="7.5" y="7.5" width="1.5" height="1.5" fill="#74C9FE"/>
<rect x="7.5" y="9" width="1.5" height="1.5" fill="#74C9FE"/>
<rect x="7.5" y="10.5" width="1.5" height="1.5" fill="#74C9FE"/>
<rect x="3" y="7.5" width="1.5" height="1.5" fill="#74C9FE"/>
<rect x="3" y="9" width="1.5" height="1.5" fill="#74C9FE"/>
<rect x="4.5" y="9" width="1.5" height="1.5" fill="#74C9FE"/>
<rect x="6" y="9" width="1.5" height="1.5" fill="#74C9FE"/>
<rect x="7.5" y="9" width="1.5" height="1.5" fill="#74C9FE"/>
<rect x="10.5" y="9" width="1.5" height="1.5" fill="#74C9FE"/>
<rect x="3" y="6" width="1.5" height="1.5" fill="#74C9FE"/>
<rect x="3" y="4.5" width="1.5" height="1.5" fill="#74C9FE"/>
<rect x="3" y="3" width="1.5" height="1.5" fill="#74C9FE"/>
<rect x="3" y="1.5" width="1.5" height="1.5" fill="#74C9FE"/>
<rect x="3" width="1.5" height="1.5" fill="#74C9FE"/>
<rect x="4.5" width="1.5" height="1.5" fill="#74C9FE"/>
<rect x="6" width="1.5" height="1.5" fill="#74C9FE"/>
<rect x="7.5" width="1.5" height="1.5" fill="#74C9FE"/>
<rect x="9" y="9" width="1.5" height="1.5" fill="#74C9FE"/>
<rect x="9" width="1.5" height="1.5" fill="#74C9FE"/>
<rect x="10.5" width="1.5" height="1.5" fill="#74C9FE"/>
<rect x="10.5" y="1.5" width="1.5" height="1.5" fill="#74C9FE"/>
<rect x="10.5" y="3" width="1.5" height="1.5" fill="#74C9FE"/>
<rect x="10.5" y="4.5" width="1.5" height="1.5" fill="#74C9FE"/>
<rect x="10.5" y="6" width="1.5" height="1.5" fill="#74C9FE"/>
<rect x="10.5" y="7.5" width="1.5" height="1.5" fill="#74C9FE"/>
</svg>
